G04*
G04 #@! TF.GenerationSoftware,Altium Limited,Altium Designer,25.5.2 (35)*
G04*
G04 Layer_Color=255*
%FSLAX44Y44*%
%MOMM*%
G71*
G04*
G04 #@! TF.SameCoordinates,E2347265-D20F-491F-8A9E-089D316F0C9A*
G04*
G04*
G04 #@! TF.FilePolarity,Positive*
G04*
G01*
G75*
G04:AMPARAMS|DCode=17|XSize=0.6mm|YSize=0.7mm|CornerRadius=0.075mm|HoleSize=0mm|Usage=FLASHONLY|Rotation=180.000|XOffset=0mm|YOffset=0mm|HoleType=Round|Shape=RoundedRectangle|*
%AMROUNDEDRECTD17*
21,1,0.6000,0.5500,0,0,180.0*
21,1,0.4500,0.7000,0,0,180.0*
1,1,0.1500,-0.2250,0.2750*
1,1,0.1500,0.2250,0.2750*
1,1,0.1500,0.2250,-0.2750*
1,1,0.1500,-0.2250,-0.2750*
%
%ADD17ROUNDEDRECTD17*%
G04:AMPARAMS|DCode=18|XSize=0.8mm|YSize=1mm|CornerRadius=0.1mm|HoleSize=0mm|Usage=FLASHONLY|Rotation=90.000|XOffset=0mm|YOffset=0mm|HoleType=Round|Shape=RoundedRectangle|*
%AMROUNDEDRECTD18*
21,1,0.8000,0.8000,0,0,90.0*
21,1,0.6000,1.0000,0,0,90.0*
1,1,0.2000,0.4000,0.3000*
1,1,0.2000,0.4000,-0.3000*
1,1,0.2000,-0.4000,-0.3000*
1,1,0.2000,-0.4000,0.3000*
%
%ADD18ROUNDEDRECTD18*%
G04:AMPARAMS|DCode=19|XSize=0.6mm|YSize=0.7mm|CornerRadius=0.075mm|HoleSize=0mm|Usage=FLASHONLY|Rotation=90.000|XOffset=0mm|YOffset=0mm|HoleType=Round|Shape=RoundedRectangle|*
%AMROUNDEDRECTD19*
21,1,0.6000,0.5500,0,0,90.0*
21,1,0.4500,0.7000,0,0,90.0*
1,1,0.1500,0.2750,0.2250*
1,1,0.1500,0.2750,-0.2250*
1,1,0.1500,-0.2750,-0.2250*
1,1,0.1500,-0.2750,0.2250*
%
%ADD19ROUNDEDRECTD19*%
%ADD20R,1.5000X0.6000*%
%ADD21R,1.5000X0.3000*%
%ADD22R,0.6500X0.4000*%
%ADD23R,1.4478X1.4478*%
%ADD24R,0.7112X0.7112*%
%ADD25R,0.4064X0.8128*%
%ADD26R,0.8128X0.4064*%
G04:AMPARAMS|DCode=27|XSize=0.2425mm|YSize=1.0311mm|CornerRadius=0.1212mm|HoleSize=0mm|Usage=FLASHONLY|Rotation=90.000|XOffset=0mm|YOffset=0mm|HoleType=Round|Shape=RoundedRectangle|*
%AMROUNDEDRECTD27*
21,1,0.2425,0.7886,0,0,90.0*
21,1,0.0000,1.0311,0,0,90.0*
1,1,0.2425,0.3943,0.0000*
1,1,0.2425,0.3943,0.0000*
1,1,0.2425,-0.3943,0.0000*
1,1,0.2425,-0.3943,0.0000*
%
%ADD27ROUNDEDRECTD27*%
G04:AMPARAMS|DCode=28|XSize=1.0311mm|YSize=0.2425mm|CornerRadius=0.1212mm|HoleSize=0mm|Usage=FLASHONLY|Rotation=90.000|XOffset=0mm|YOffset=0mm|HoleType=Round|Shape=RoundedRectangle|*
%AMROUNDEDRECTD28*
21,1,1.0311,0.0000,0,0,90.0*
21,1,0.7886,0.2425,0,0,90.0*
1,1,0.2425,0.0000,0.3943*
1,1,0.2425,0.0000,-0.3943*
1,1,0.2425,0.0000,-0.3943*
1,1,0.2425,0.0000,0.3943*
%
%ADD28ROUNDEDRECTD28*%
%ADD29R,0.2425X1.0311*%
%ADD30R,3.5000X1.0000*%
%ADD31R,3.4000X1.5000*%
%ADD32R,0.6000X1.5500*%
%ADD33R,1.2000X1.8000*%
%ADD34R,0.9800X3.4000*%
%ADD35R,1.3383X0.5780*%
G04:AMPARAMS|DCode=36|XSize=1.3383mm|YSize=0.578mm|CornerRadius=0.289mm|HoleSize=0mm|Usage=FLASHONLY|Rotation=0.000|XOffset=0mm|YOffset=0mm|HoleType=Round|Shape=RoundedRectangle|*
%AMROUNDEDRECTD36*
21,1,1.3383,0.0000,0,0,0.0*
21,1,0.7603,0.5780,0,0,0.0*
1,1,0.5780,0.3802,0.0000*
1,1,0.5780,-0.3802,0.0000*
1,1,0.5780,-0.3802,0.0000*
1,1,0.5780,0.3802,0.0000*
%
%ADD36ROUNDEDRECTD36*%
G04:AMPARAMS|DCode=37|XSize=1.3571mm|YSize=0.5721mm|CornerRadius=0.2861mm|HoleSize=0mm|Usage=FLASHONLY|Rotation=180.000|XOffset=0mm|YOffset=0mm|HoleType=Round|Shape=RoundedRectangle|*
%AMROUNDEDRECTD37*
21,1,1.3571,0.0000,0,0,180.0*
21,1,0.7850,0.5721,0,0,180.0*
1,1,0.5721,-0.3925,0.0000*
1,1,0.5721,0.3925,0.0000*
1,1,0.5721,0.3925,0.0000*
1,1,0.5721,-0.3925,0.0000*
%
%ADD37ROUNDEDRECTD37*%
%ADD38R,1.3571X0.5721*%
%ADD39R,0.9000X1.0000*%
%ADD40R,1.7000X0.5500*%
%ADD41R,0.3500X1.5565*%
G04:AMPARAMS|DCode=42|XSize=1.5565mm|YSize=0.35mm|CornerRadius=0.175mm|HoleSize=0mm|Usage=FLASHONLY|Rotation=270.000|XOffset=0mm|YOffset=0mm|HoleType=Round|Shape=RoundedRectangle|*
%AMROUNDEDRECTD42*
21,1,1.5565,0.0000,0,0,270.0*
21,1,1.2065,0.3500,0,0,270.0*
1,1,0.3500,0.0000,-0.6033*
1,1,0.3500,0.0000,0.6033*
1,1,0.3500,0.0000,0.6033*
1,1,0.3500,0.0000,-0.6033*
%
%ADD42ROUNDEDRECTD42*%
%ADD43R,1.1500X0.6000*%
%ADD44R,0.3808X1.6554*%
G04:AMPARAMS|DCode=45|XSize=1.6554mm|YSize=0.3808mm|CornerRadius=0.1904mm|HoleSize=0mm|Usage=FLASHONLY|Rotation=90.000|XOffset=0mm|YOffset=0mm|HoleType=Round|Shape=RoundedRectangle|*
%AMROUNDEDRECTD45*
21,1,1.6554,0.0000,0,0,90.0*
21,1,1.2747,0.3808,0,0,90.0*
1,1,0.3808,0.0000,0.6373*
1,1,0.3808,0.0000,-0.6373*
1,1,0.3808,0.0000,-0.6373*
1,1,0.3808,0.0000,0.6373*
%
%ADD45ROUNDEDRECTD45*%
%ADD46R,0.7025X1.2575*%
G04:AMPARAMS|DCode=47|XSize=1.2575mm|YSize=0.7025mm|CornerRadius=0.3512mm|HoleSize=0mm|Usage=FLASHONLY|Rotation=270.000|XOffset=0mm|YOffset=0mm|HoleType=Round|Shape=RoundedRectangle|*
%AMROUNDEDRECTD47*
21,1,1.2575,0.0000,0,0,270.0*
21,1,0.5550,0.7025,0,0,270.0*
1,1,0.7025,0.0000,-0.2775*
1,1,0.7025,0.0000,0.2775*
1,1,0.7025,0.0000,0.2775*
1,1,0.7025,0.0000,-0.2775*
%
%ADD47ROUNDEDRECTD47*%
G04:AMPARAMS|DCode=48|XSize=0.24mm|YSize=0.6mm|CornerRadius=0.0504mm|HoleSize=0mm|Usage=FLASHONLY|Rotation=270.000|XOffset=0mm|YOffset=0mm|HoleType=Round|Shape=RoundedRectangle|*
%AMROUNDEDRECTD48*
21,1,0.2400,0.4992,0,0,270.0*
21,1,0.1392,0.6000,0,0,270.0*
1,1,0.1008,-0.2496,-0.0696*
1,1,0.1008,-0.2496,0.0696*
1,1,0.1008,0.2496,0.0696*
1,1,0.1008,0.2496,-0.0696*
%
%ADD48ROUNDEDRECTD48*%
G04:AMPARAMS|DCode=49|XSize=0.6mm|YSize=0.24mm|CornerRadius=0.0504mm|HoleSize=0mm|Usage=FLASHONLY|Rotation=270.000|XOffset=0mm|YOffset=0mm|HoleType=Round|Shape=RoundedRectangle|*
%AMROUNDEDRECTD49*
21,1,0.6000,0.1392,0,0,270.0*
21,1,0.4992,0.2400,0,0,270.0*
1,1,0.1008,-0.0696,-0.2496*
1,1,0.1008,-0.0696,0.2496*
1,1,0.1008,0.0696,0.2496*
1,1,0.1008,0.0696,-0.2496*
%
%ADD49ROUNDEDRECTD49*%
%ADD50R,2.6000X1.7000*%
G04:AMPARAMS|DCode=51|XSize=0.8mm|YSize=1mm|CornerRadius=0.1mm|HoleSize=0mm|Usage=FLASHONLY|Rotation=0.000|XOffset=0mm|YOffset=0mm|HoleType=Round|Shape=RoundedRectangle|*
%AMROUNDEDRECTD51*
21,1,0.8000,0.8000,0,0,0.0*
21,1,0.6000,1.0000,0,0,0.0*
1,1,0.2000,0.3000,-0.4000*
1,1,0.2000,-0.3000,-0.4000*
1,1,0.2000,-0.3000,0.4000*
1,1,0.2000,0.3000,0.4000*
%
%ADD51ROUNDEDRECTD51*%
%ADD52R,0.4000X0.6500*%
G04:AMPARAMS|DCode=53|XSize=1.4mm|YSize=1.7mm|CornerRadius=0.175mm|HoleSize=0mm|Usage=FLASHONLY|Rotation=270.000|XOffset=0mm|YOffset=0mm|HoleType=Round|Shape=RoundedRectangle|*
%AMROUNDEDRECTD53*
21,1,1.4000,1.3500,0,0,270.0*
21,1,1.0500,1.7000,0,0,270.0*
1,1,0.3500,-0.6750,-0.5250*
1,1,0.3500,-0.6750,0.5250*
1,1,0.3500,0.6750,0.5250*
1,1,0.3500,0.6750,-0.5250*
%
%ADD53ROUNDEDRECTD53*%
%ADD61R,3.3500X3.3500*%
G04:AMPARAMS|DCode=65|XSize=1.79mm|YSize=0.22mm|CornerRadius=0.0495mm|HoleSize=0mm|Usage=FLASHONLY|Rotation=270.000|XOffset=0mm|YOffset=0mm|HoleType=Round|Shape=RoundedRectangle|*
%AMROUNDEDRECTD65*
21,1,1.7900,0.1210,0,0,270.0*
21,1,1.6910,0.2200,0,0,270.0*
1,1,0.0990,-0.0605,-0.8455*
1,1,0.0990,-0.0605,0.8455*
1,1,0.0990,0.0605,0.8455*
1,1,0.0990,0.0605,-0.8455*
%
%ADD65ROUNDEDRECTD65*%
G04:AMPARAMS|DCode=66|XSize=1.79mm|YSize=0.24mm|CornerRadius=0.0504mm|HoleSize=0mm|Usage=FLASHONLY|Rotation=270.000|XOffset=0mm|YOffset=0mm|HoleType=Round|Shape=RoundedRectangle|*
%AMROUNDEDRECTD66*
21,1,1.7900,0.1392,0,0,270.0*
21,1,1.6892,0.2400,0,0,270.0*
1,1,0.1008,-0.0696,-0.8446*
1,1,0.1008,-0.0696,0.8446*
1,1,0.1008,0.0696,0.8446*
1,1,0.1008,0.0696,-0.8446*
%
%ADD66ROUNDEDRECTD66*%
%ADD78C,0.6000*%
%ADD79O,2.2000X1.0000*%
%ADD80O,1.9000X1.0000*%
D17*
X240000Y350000D02*
D03*
X230000D02*
D03*
X176250Y192500D02*
D03*
X166250D02*
D03*
X792500Y277500D02*
D03*
X782500D02*
D03*
X792500Y242500D02*
D03*
X782500D02*
D03*
X782500Y260000D02*
D03*
X792500D02*
D03*
X176250Y175000D02*
D03*
X166250D02*
D03*
X233750Y182500D02*
D03*
X223750D02*
D03*
X198750Y182500D02*
D03*
X208750D02*
D03*
X303750Y182500D02*
D03*
X293750D02*
D03*
X268750Y182500D02*
D03*
X278750D02*
D03*
X373750Y182500D02*
D03*
X363750D02*
D03*
X338750Y182500D02*
D03*
X348750D02*
D03*
X647500Y230000D02*
D03*
X637500D02*
D03*
X590000Y215000D02*
D03*
X600000D02*
D03*
X590000Y199000D02*
D03*
X600000D02*
D03*
X462500Y350000D02*
D03*
X452500D02*
D03*
X340000Y350000D02*
D03*
X350000D02*
D03*
X350000Y332500D02*
D03*
X340000D02*
D03*
X240000Y332500D02*
D03*
X230000D02*
D03*
X327500Y210000D02*
D03*
X317500D02*
D03*
X782500Y207500D02*
D03*
X792500D02*
D03*
X782500Y225000D02*
D03*
X792500D02*
D03*
D18*
X210000Y350000D02*
D03*
Y335000D02*
D03*
X320000D02*
D03*
Y350000D02*
D03*
X445000Y260000D02*
D03*
Y245000D02*
D03*
Y227500D02*
D03*
Y212500D02*
D03*
X385000Y245000D02*
D03*
Y230000D02*
D03*
X465000Y260000D02*
D03*
Y245000D02*
D03*
D19*
X565000Y193750D02*
D03*
Y183750D02*
D03*
X492500Y262500D02*
D03*
Y272500D02*
D03*
X642500Y67500D02*
D03*
Y77500D02*
D03*
X625000Y67500D02*
D03*
Y77500D02*
D03*
X437500Y193750D02*
D03*
Y183750D02*
D03*
X420000Y193750D02*
D03*
Y183750D02*
D03*
X507500Y193750D02*
D03*
Y183750D02*
D03*
X490000Y193750D02*
D03*
Y183750D02*
D03*
X547500Y193750D02*
D03*
Y183750D02*
D03*
X797500Y317500D02*
D03*
Y307500D02*
D03*
X607500Y67500D02*
D03*
Y77500D02*
D03*
X797500Y355000D02*
D03*
Y345000D02*
D03*
X492500Y310000D02*
D03*
Y300000D02*
D03*
X720000Y75000D02*
D03*
Y65000D02*
D03*
X737500Y75000D02*
D03*
Y65000D02*
D03*
X510000Y272500D02*
D03*
Y262500D02*
D03*
X492500Y335000D02*
D03*
Y345000D02*
D03*
X510000Y335000D02*
D03*
Y345000D02*
D03*
X97500Y107500D02*
D03*
Y117500D02*
D03*
Y157500D02*
D03*
Y147500D02*
D03*
X167500Y107500D02*
D03*
Y117500D02*
D03*
Y157500D02*
D03*
Y147500D02*
D03*
X237500Y107500D02*
D03*
Y117500D02*
D03*
Y157500D02*
D03*
Y147500D02*
D03*
X307500Y107500D02*
D03*
Y117500D02*
D03*
Y157500D02*
D03*
Y147500D02*
D03*
X300000Y305000D02*
D03*
Y295000D02*
D03*
X190000Y305000D02*
D03*
Y295000D02*
D03*
X360000Y305000D02*
D03*
Y295000D02*
D03*
X250000Y305000D02*
D03*
Y295000D02*
D03*
X377500Y107500D02*
D03*
Y117500D02*
D03*
X377500Y157500D02*
D03*
Y147500D02*
D03*
X447500Y107500D02*
D03*
Y117500D02*
D03*
Y157500D02*
D03*
Y147500D02*
D03*
X517500Y107500D02*
D03*
Y117500D02*
D03*
Y157500D02*
D03*
Y147500D02*
D03*
X587500Y107259D02*
D03*
Y117259D02*
D03*
Y157259D02*
D03*
Y147259D02*
D03*
D20*
X764000Y96000D02*
D03*
Y88000D02*
D03*
Y152000D02*
D03*
Y144000D02*
D03*
D21*
Y102500D02*
D03*
Y107500D02*
D03*
Y112500D02*
D03*
Y137500D02*
D03*
Y132500D02*
D03*
Y127500D02*
D03*
Y122500D02*
D03*
Y117500D02*
D03*
D22*
X725000Y127500D02*
D03*
Y120500D02*
D03*
Y101500D02*
D03*
Y108500D02*
D03*
D23*
X594750Y320000D02*
D03*
X614500D02*
D03*
Y300250D02*
D03*
Y280500D02*
D03*
X594750D02*
D03*
X575000D02*
D03*
Y300250D02*
D03*
Y320000D02*
D03*
X594750Y300250D02*
D03*
D24*
X535250Y349750D02*
D03*
Y250751D02*
D03*
X654250Y250750D02*
D03*
Y349750D02*
D03*
D25*
X546750Y349250D02*
D03*
X554750D02*
D03*
X562750D02*
D03*
X570750D02*
D03*
X578750D02*
D03*
X586750D02*
D03*
X594750D02*
D03*
X602750D02*
D03*
X610750D02*
D03*
X618750D02*
D03*
X626750D02*
D03*
X634750D02*
D03*
X642750D02*
D03*
X642750Y251250D02*
D03*
X634750D02*
D03*
X626750D02*
D03*
X618750D02*
D03*
X610750D02*
D03*
X602750D02*
D03*
X594750D02*
D03*
X586750D02*
D03*
X578750D02*
D03*
X570750D02*
D03*
X562750D02*
D03*
X554750D02*
D03*
X546750D02*
D03*
D26*
X653750Y340250D02*
D03*
Y332250D02*
D03*
Y324250D02*
D03*
Y316250D02*
D03*
Y308250D02*
D03*
Y300250D02*
D03*
Y292250D02*
D03*
Y284250D02*
D03*
Y276250D02*
D03*
Y268250D02*
D03*
Y260250D02*
D03*
X535750D02*
D03*
Y268250D02*
D03*
Y276250D02*
D03*
Y284250D02*
D03*
Y292250D02*
D03*
Y300250D02*
D03*
Y308250D02*
D03*
Y316250D02*
D03*
Y324250D02*
D03*
Y332250D02*
D03*
Y340250D02*
D03*
D27*
X714095Y237500D02*
D03*
Y242500D02*
D03*
Y247500D02*
D03*
Y252500D02*
D03*
Y257500D02*
D03*
Y262500D02*
D03*
Y267500D02*
D03*
X760905D02*
D03*
Y262500D02*
D03*
Y257500D02*
D03*
Y252500D02*
D03*
Y247500D02*
D03*
Y242500D02*
D03*
Y237500D02*
D03*
D28*
X722500Y275905D02*
D03*
X727500D02*
D03*
X732500D02*
D03*
X737500D02*
D03*
X742500D02*
D03*
X747500D02*
D03*
X752500D02*
D03*
Y229095D02*
D03*
X747500D02*
D03*
X742500D02*
D03*
X737500D02*
D03*
X732500D02*
D03*
X727500D02*
D03*
D29*
X722500D02*
D03*
D30*
X114500Y230000D02*
D03*
Y210000D02*
D03*
Y327500D02*
D03*
Y307500D02*
D03*
D31*
X57000Y253500D02*
D03*
Y186500D02*
D03*
Y351000D02*
D03*
Y284000D02*
D03*
D32*
X75000Y84500D02*
D03*
X65000D02*
D03*
X145000D02*
D03*
X135000D02*
D03*
X215000D02*
D03*
X205000D02*
D03*
X285000D02*
D03*
X275000D02*
D03*
X355000D02*
D03*
X345000D02*
D03*
X425000D02*
D03*
X415000D02*
D03*
X495000D02*
D03*
X485000D02*
D03*
X565000D02*
D03*
X555000D02*
D03*
D33*
X88000Y45750D02*
D03*
X52000D02*
D03*
X158000D02*
D03*
X122000D02*
D03*
X228000D02*
D03*
X192000D02*
D03*
X298000D02*
D03*
X262000D02*
D03*
X368000D02*
D03*
X332000D02*
D03*
X438000D02*
D03*
X402000D02*
D03*
X508000D02*
D03*
X472000D02*
D03*
X578000D02*
D03*
X542000D02*
D03*
D34*
X426850Y307500D02*
D03*
X403150D02*
D03*
D35*
X208838Y314500D02*
D03*
X318838D02*
D03*
D36*
X208838Y305000D02*
D03*
Y295500D02*
D03*
X231162D02*
D03*
Y314500D02*
D03*
X318838Y305000D02*
D03*
Y295500D02*
D03*
X341162D02*
D03*
Y314500D02*
D03*
D37*
X757995Y345000D02*
D03*
X777005Y354500D02*
D03*
X757995Y307500D02*
D03*
X777005Y317000D02*
D03*
D38*
Y335500D02*
D03*
Y298000D02*
D03*
D39*
X689500Y313000D02*
D03*
X730500D02*
D03*
X689500Y297000D02*
D03*
X730500D02*
D03*
X689500Y353000D02*
D03*
X730500D02*
D03*
X689500Y337000D02*
D03*
X730500D02*
D03*
D40*
X710000Y319250D02*
D03*
Y359250D02*
D03*
D41*
X80000Y153509D02*
D03*
X150000D02*
D03*
X220000D02*
D03*
X290000D02*
D03*
X430000D02*
D03*
X570000D02*
D03*
X500000D02*
D03*
X360000D02*
D03*
D42*
X75000D02*
D03*
X70000D02*
D03*
X65000D02*
D03*
X60000D02*
D03*
Y111491D02*
D03*
X65000D02*
D03*
X70000D02*
D03*
X75000D02*
D03*
X80000D02*
D03*
X145000Y153509D02*
D03*
X140000D02*
D03*
X135000D02*
D03*
X130000D02*
D03*
Y111491D02*
D03*
X135000D02*
D03*
X140000D02*
D03*
X145000D02*
D03*
X150000D02*
D03*
X215000Y153509D02*
D03*
X210000D02*
D03*
X205000D02*
D03*
X200000D02*
D03*
Y111491D02*
D03*
X205000D02*
D03*
X210000D02*
D03*
X215000D02*
D03*
X220000D02*
D03*
X285000Y153509D02*
D03*
X280000D02*
D03*
X275000D02*
D03*
X270000D02*
D03*
Y111491D02*
D03*
X275000D02*
D03*
X280000D02*
D03*
X285000D02*
D03*
X290000D02*
D03*
X425000Y153509D02*
D03*
X420000D02*
D03*
X415000D02*
D03*
X410000D02*
D03*
Y111491D02*
D03*
X415000D02*
D03*
X420000D02*
D03*
X425000D02*
D03*
X430000D02*
D03*
X565000Y153509D02*
D03*
X560000D02*
D03*
X555000D02*
D03*
X550000D02*
D03*
Y111491D02*
D03*
X555000D02*
D03*
X560000D02*
D03*
X565000D02*
D03*
X570000D02*
D03*
X495000Y153509D02*
D03*
X490000D02*
D03*
X485000D02*
D03*
X480000D02*
D03*
Y111491D02*
D03*
X485000D02*
D03*
X490000D02*
D03*
X495000D02*
D03*
X500000D02*
D03*
X355000Y153509D02*
D03*
X350000D02*
D03*
X345000D02*
D03*
X340000D02*
D03*
Y111491D02*
D03*
X345000D02*
D03*
X350000D02*
D03*
X355000D02*
D03*
X360000D02*
D03*
D43*
X304000Y237500D02*
D03*
X326000Y247100D02*
D03*
Y227900D02*
D03*
D44*
X619250Y114246D02*
D03*
D45*
X625750D02*
D03*
X632250D02*
D03*
X638750D02*
D03*
X645250D02*
D03*
X651750D02*
D03*
X658250D02*
D03*
X664750D02*
D03*
X671250D02*
D03*
X677750D02*
D03*
X684250D02*
D03*
X690750D02*
D03*
Y170754D02*
D03*
X684250D02*
D03*
X677750D02*
D03*
X671250D02*
D03*
X664750D02*
D03*
X658250D02*
D03*
X651750D02*
D03*
X645250D02*
D03*
X638750D02*
D03*
X632250D02*
D03*
X625750D02*
D03*
X619250D02*
D03*
D46*
X355000Y244004D02*
D03*
D47*
Y210996D02*
D03*
D48*
X401000Y265000D02*
D03*
Y260000D02*
D03*
Y255000D02*
D03*
Y250000D02*
D03*
X429000D02*
D03*
Y255000D02*
D03*
Y260000D02*
D03*
Y265000D02*
D03*
D49*
X410000Y246000D02*
D03*
X415000D02*
D03*
X420000D02*
D03*
D50*
X219500Y206000D02*
D03*
X260500D02*
D03*
X219500Y241000D02*
D03*
X260500D02*
D03*
D51*
X415000Y350000D02*
D03*
X430000D02*
D03*
D52*
X736500Y157500D02*
D03*
X729500D02*
D03*
D53*
X462500Y306430D02*
D03*
Y283570D02*
D03*
D61*
X737500Y252500D02*
D03*
D65*
X419900Y263050D02*
D03*
X410100D02*
D03*
D66*
X415000D02*
D03*
D78*
X776500Y149000D02*
D03*
Y91000D02*
D03*
D79*
X771500Y76750D02*
D03*
Y163250D02*
D03*
D80*
X813500D02*
D03*
Y76750D02*
D03*
M02*
