G04*
G04 #@! TF.GenerationSoftware,Altium Limited,Altium Designer,25.5.2 (35)*
G04*
G04 Layer_Color=128*
%FSLAX44Y44*%
%MOMM*%
G71*
G04*
G04 #@! TF.SameCoordinates,E2347265-D20F-491F-8A9E-089D316F0C9A*
G04*
G04*
G04 #@! TF.FilePolarity,Positive*
G04*
G01*
G75*
%ADD89C,0.1270*%
D89*
X773500Y149000D02*
X779500D01*
X776500Y146000D02*
Y152000D01*
X773500Y91000D02*
X779500D01*
X776500Y88000D02*
Y94000D01*
X768750Y76750D02*
X774250D01*
X771500Y74000D02*
Y79500D01*
X768750Y163250D02*
X774250D01*
X771500Y160500D02*
Y166000D01*
X810750Y163250D02*
X816250D01*
X813500Y160500D02*
Y166000D01*
X810750Y76750D02*
X816250D01*
X813500Y74000D02*
Y79500D01*
X158750Y340000D02*
X161250D01*
X160000Y338750D02*
Y341250D01*
X158750Y353000D02*
X161250D01*
X160000Y351750D02*
Y354250D01*
X173750Y353000D02*
X176250D01*
X175000Y351750D02*
Y354250D01*
X188750Y353000D02*
X191250D01*
X190000Y351750D02*
Y354250D01*
X298750Y353000D02*
X301250D01*
X300000Y351750D02*
Y354250D01*
X283750Y353000D02*
X286250D01*
X285000Y351750D02*
Y354250D01*
X576133Y198383D02*
X578633D01*
X577383Y197133D02*
Y199633D01*
X83750Y185000D02*
X86250D01*
X85000Y183750D02*
Y186250D01*
X82750Y254000D02*
X85250D01*
X84000Y252750D02*
Y255250D01*
X84750Y351000D02*
X87250D01*
X86000Y349750D02*
Y352250D01*
X82750Y284000D02*
X85250D01*
X84000Y282750D02*
Y285250D01*
X738750Y183000D02*
X741250D01*
X740000Y181750D02*
Y184250D01*
X748750Y183000D02*
X751250D01*
X750000Y181750D02*
Y184250D01*
X733801Y144038D02*
X736301D01*
X735051Y142788D02*
Y145288D01*
X586301Y332449D02*
X588801D01*
X587551Y331199D02*
Y333699D01*
X603625Y310125D02*
X606125D01*
X604875Y308875D02*
Y311375D01*
X524000Y340250D02*
X526500D01*
X525250Y339000D02*
Y341500D01*
X546141Y340109D02*
X548641D01*
X547391Y338859D02*
Y341359D01*
X593750Y339000D02*
X596250D01*
X595000Y337750D02*
Y340250D01*
X653750Y360000D02*
X656250D01*
X655000Y358750D02*
Y361250D01*
X533750Y358000D02*
X536250D01*
X535000Y356750D02*
Y359250D01*
X508750Y354000D02*
X511250D01*
X510000Y352750D02*
Y355250D01*
X490750Y354000D02*
X493250D01*
X492000Y352750D02*
Y355250D01*
X533750Y241000D02*
X536250D01*
X535000Y239750D02*
Y242250D01*
X668750Y250000D02*
X671250D01*
X670000Y248750D02*
Y251250D01*
X722574Y94324D02*
X725074D01*
X723824Y93074D02*
Y95574D01*
X182500Y192500D02*
X185000D01*
X183750Y191250D02*
Y193750D01*
X723750Y137500D02*
X726250D01*
X725000Y136250D02*
Y138750D01*
X713750Y150000D02*
X716250D01*
X715000Y148750D02*
Y151250D01*
X702750Y150000D02*
X705250D01*
X704000Y148750D02*
Y151250D01*
X583625Y290125D02*
X586125D01*
X584875Y288875D02*
Y291375D01*
X603625Y290125D02*
X606125D01*
X604875Y288875D02*
Y291375D01*
X583625Y310125D02*
X586125D01*
X584875Y308875D02*
Y311375D01*
X491250Y320000D02*
X493750D01*
X492500Y318750D02*
Y321250D01*
X496250Y285000D02*
X498750D01*
X497500Y283750D02*
Y286250D01*
X473750Y335000D02*
X476250D01*
X475000Y333750D02*
Y336250D01*
X473750Y350000D02*
X476250D01*
X475000Y348750D02*
Y351250D01*
X608750Y127500D02*
X611250D01*
X610000Y126250D02*
Y128750D01*
X376250Y127500D02*
X378750D01*
X377500Y126250D02*
Y128750D01*
X388750Y127500D02*
X391250D01*
X390000Y126250D02*
Y128750D01*
X446250Y127500D02*
X448750D01*
X447500Y126250D02*
Y128750D01*
X458750Y127500D02*
X461250D01*
X460000Y126250D02*
Y128750D01*
X596250Y127500D02*
X598750D01*
X597500Y126250D02*
Y128750D01*
X528750Y127500D02*
X531250D01*
X530000Y126250D02*
Y128750D01*
X516250Y127500D02*
X518750D01*
X517500Y126250D02*
Y128750D01*
X586250Y127500D02*
X588750D01*
X587500Y126250D02*
Y128750D01*
X583750Y95000D02*
X586250D01*
X585000Y93750D02*
Y96250D01*
X513750Y95000D02*
X516250D01*
X515000Y93750D02*
Y96250D01*
X443750Y95000D02*
X446250D01*
X445000Y93750D02*
Y96250D01*
X373750Y95000D02*
X376250D01*
X375000Y93750D02*
Y96250D01*
X303750Y95000D02*
X306250D01*
X305000Y93750D02*
Y96250D01*
X233750Y95000D02*
X236250D01*
X235000Y93750D02*
Y96250D01*
X728750Y245000D02*
X731250D01*
X730000Y243750D02*
Y246250D01*
X743750Y245000D02*
X746250D01*
X745000Y243750D02*
Y246250D01*
X743750Y260000D02*
X746250D01*
X745000Y258750D02*
Y261250D01*
X728750Y260000D02*
X731250D01*
X730000Y258750D02*
Y261250D01*
X338000Y228000D02*
X340500D01*
X339250Y226750D02*
Y229250D01*
X98750Y55000D02*
X101250D01*
X100000Y53750D02*
Y56250D01*
X108750Y55000D02*
X111250D01*
X110000Y53750D02*
Y56250D01*
X168750Y55000D02*
X171250D01*
X170000Y53750D02*
Y56250D01*
X178750Y55000D02*
X181250D01*
X180000Y53750D02*
Y56250D01*
X238750Y55000D02*
X241250D01*
X240000Y53750D02*
Y56250D01*
X248750Y55000D02*
X251250D01*
X250000Y53750D02*
Y56250D01*
X308750Y55000D02*
X311250D01*
X310000Y53750D02*
Y56250D01*
X318750Y55000D02*
X321250D01*
X320000Y53750D02*
Y56250D01*
X378750Y55000D02*
X381250D01*
X380000Y53750D02*
Y56250D01*
X388750Y55000D02*
X391250D01*
X390000Y53750D02*
Y56250D01*
X448750Y55000D02*
X451250D01*
X450000Y53750D02*
Y56250D01*
X588750Y55000D02*
X591250D01*
X590000Y53750D02*
Y56250D01*
X528750Y55000D02*
X531250D01*
X530000Y53750D02*
Y56250D01*
X518750Y55000D02*
X521250D01*
X520000Y53750D02*
Y56250D01*
X458750Y55000D02*
X461250D01*
X460000Y53750D02*
Y56250D01*
X53750Y65000D02*
X56250D01*
X55000Y63750D02*
Y66250D01*
X553532Y359782D02*
X556032D01*
X554782Y358532D02*
Y361032D01*
X636250Y215000D02*
X638750D01*
X637500Y213750D02*
Y216250D01*
X626250Y205000D02*
X628750D01*
X627500Y203750D02*
Y206250D01*
X626250Y192500D02*
X628750D01*
X627500Y191250D02*
Y193750D01*
X609125Y215375D02*
X611625D01*
X610375Y214125D02*
Y216625D01*
X646250Y215000D02*
X648750D01*
X647500Y213750D02*
Y216250D01*
X671250Y215000D02*
X673750D01*
X672500Y213750D02*
Y216250D01*
X658750Y215000D02*
X661250D01*
X660000Y213750D02*
Y216250D01*
X683750Y215000D02*
X686250D01*
X685000Y213750D02*
Y216250D01*
X696250Y215000D02*
X698750D01*
X697500Y213750D02*
Y216250D01*
X696250Y202500D02*
X698750D01*
X697500Y201250D02*
Y203750D01*
X696250Y190000D02*
X698750D01*
X697500Y188750D02*
Y191250D01*
X728750Y85000D02*
X731250D01*
X730000Y83750D02*
Y86250D01*
X748750Y77500D02*
X751250D01*
X750000Y76250D02*
Y78750D01*
X633750Y360000D02*
X636250D01*
X635000Y358750D02*
Y361250D01*
X617750Y360000D02*
X620250D01*
X619000Y358750D02*
Y361250D01*
X601750Y360000D02*
X604250D01*
X603000Y358750D02*
Y361250D01*
X585750Y360000D02*
X588250D01*
X587000Y358750D02*
Y361250D01*
X569750Y360000D02*
X572250D01*
X571000Y358750D02*
Y361250D01*
X696250Y240000D02*
X698750D01*
X697500Y238750D02*
Y241250D01*
X678750Y240000D02*
X681250D01*
X680000Y238750D02*
Y241250D01*
X426250Y232500D02*
X428750D01*
X427500Y231250D02*
Y233750D01*
X606250Y95000D02*
X608750D01*
X607500Y93750D02*
Y96250D01*
X693750Y72500D02*
X696250D01*
X695000Y71250D02*
Y73750D01*
X678750Y72500D02*
X681250D01*
X680000Y71250D02*
Y73750D01*
X666250Y72500D02*
X668750D01*
X667500Y71250D02*
Y73750D01*
X653750Y72500D02*
X656250D01*
X655000Y71250D02*
Y73750D01*
X698750Y82500D02*
X701250D01*
X700000Y81250D02*
Y83750D01*
X698750Y95000D02*
X701250D01*
X700000Y93750D02*
Y96250D01*
X536250Y172500D02*
X538750D01*
X537500Y171250D02*
Y173750D01*
X548750Y172500D02*
X551250D01*
X550000Y171250D02*
Y173750D01*
X576250Y177500D02*
X578750D01*
X577500Y176250D02*
Y178750D01*
X48750Y160000D02*
X51250D01*
X50000Y158750D02*
Y161250D01*
X698750Y115000D02*
X701250D01*
X700000Y113750D02*
Y116250D01*
X613750Y185000D02*
X616250D01*
X615000Y183750D02*
Y186250D01*
X558750Y172500D02*
X561250D01*
X560000Y171250D02*
Y173750D01*
X563750Y205000D02*
X566250D01*
X565000Y203750D02*
Y206250D01*
X546250Y205000D02*
X548750D01*
X547500Y203750D02*
Y206250D01*
X506250Y205000D02*
X508750D01*
X507500Y203750D02*
Y206250D01*
X488750Y205000D02*
X491250D01*
X490000Y203750D02*
Y206250D01*
X436250Y205000D02*
X438750D01*
X437500Y203750D02*
Y206250D01*
X418750Y205000D02*
X421250D01*
X420000Y203750D02*
Y206250D01*
X316250Y130000D02*
X318750D01*
X317500Y128750D02*
Y131250D01*
X303750Y130000D02*
X306250D01*
X305000Y128750D02*
Y131250D01*
X466250Y170000D02*
X468750D01*
X467500Y168750D02*
Y171250D01*
X396250Y170000D02*
X398750D01*
X397500Y168750D02*
Y171250D01*
X326250Y170000D02*
X328750D01*
X327500Y168750D02*
Y171250D01*
X256250Y170000D02*
X258750D01*
X257500Y168750D02*
Y171250D01*
X623750Y57500D02*
X626250D01*
X625000Y56250D02*
Y58750D01*
X641250Y57500D02*
X643750D01*
X642500Y56250D02*
Y58750D01*
X641250Y87500D02*
X643750D01*
X642500Y86250D02*
Y88750D01*
X628750Y87500D02*
X631250D01*
X630000Y86250D02*
Y88750D01*
X606250Y57500D02*
X608750D01*
X607500Y56250D02*
Y58750D01*
X178750Y107500D02*
X181250D01*
X180000Y106250D02*
Y108750D01*
X108750Y107500D02*
X111250D01*
X110000Y106250D02*
Y108750D01*
X193750Y240000D02*
X196250D01*
X195000Y238750D02*
Y241250D01*
X190000Y182500D02*
X192500D01*
X191250Y181250D02*
Y183750D01*
X182500Y175000D02*
X185000D01*
X183750Y173750D02*
Y176250D01*
X260000Y182500D02*
X262500D01*
X261250Y181250D02*
Y183750D01*
X240000Y182500D02*
X242500D01*
X241250Y181250D02*
Y183750D01*
X310000Y182500D02*
X312500D01*
X311250Y181250D02*
Y183750D01*
X330000Y182500D02*
X332500D01*
X331250Y181250D02*
Y183750D01*
X380000Y182500D02*
X382500D01*
X381250Y181250D02*
Y183750D01*
X188750Y160000D02*
X191250D01*
X190000Y158750D02*
Y161250D01*
X118750Y160000D02*
X121250D01*
X120000Y158750D02*
Y161250D01*
X738750Y127500D02*
X741250D01*
X740000Y126250D02*
Y128750D01*
X738750Y167500D02*
X741250D01*
X740000Y166250D02*
Y168750D01*
X744750Y91000D02*
X747250D01*
X746000Y89750D02*
Y92250D01*
X744750Y144000D02*
X747250D01*
X746000Y142750D02*
Y145250D01*
X751250Y162500D02*
X753750D01*
X752500Y161250D02*
Y163750D01*
X558750Y127500D02*
X561250D01*
X560000Y126250D02*
Y128750D01*
X488750Y125000D02*
X491250D01*
X490000Y123750D02*
Y126250D01*
X418750Y125000D02*
X421250D01*
X420000Y123750D02*
Y126250D01*
X348750Y125000D02*
X351250D01*
X350000Y123750D02*
Y126250D01*
X278750Y125000D02*
X281250D01*
X280000Y123750D02*
Y126250D01*
X208750Y125000D02*
X211250D01*
X210000Y123750D02*
Y126250D01*
X138750Y125000D02*
X141250D01*
X140000Y123750D02*
Y126250D01*
X68750Y125000D02*
X71250D01*
X70000Y123750D02*
Y126250D01*
X68750Y170000D02*
X71250D01*
X70000Y168750D02*
Y171250D01*
X58750Y170000D02*
X61250D01*
X60000Y168750D02*
Y171250D01*
X78750Y170000D02*
X81250D01*
X80000Y168750D02*
Y171250D01*
X138750Y170000D02*
X141250D01*
X140000Y168750D02*
Y171250D01*
X128750Y170000D02*
X131250D01*
X130000Y168750D02*
Y171250D01*
X148750Y170000D02*
X151250D01*
X150000Y168750D02*
Y171250D01*
X208750Y170000D02*
X211250D01*
X210000Y168750D02*
Y171250D01*
X198750Y170000D02*
X201250D01*
X200000Y168750D02*
Y171250D01*
X218750Y170000D02*
X221250D01*
X220000Y168750D02*
Y171250D01*
X278750Y170000D02*
X281250D01*
X280000Y168750D02*
Y171250D01*
X268750Y170000D02*
X271250D01*
X270000Y168750D02*
Y171250D01*
X288750Y170000D02*
X291250D01*
X290000Y168750D02*
Y171250D01*
X348750Y170000D02*
X351250D01*
X350000Y168750D02*
Y171250D01*
X338750Y170000D02*
X341250D01*
X340000Y168750D02*
Y171250D01*
X358750Y170000D02*
X361250D01*
X360000Y168750D02*
Y171250D01*
X418750Y170000D02*
X421250D01*
X420000Y168750D02*
Y171250D01*
X408750Y170000D02*
X411250D01*
X410000Y168750D02*
Y171250D01*
X428750Y170000D02*
X431250D01*
X430000Y168750D02*
Y171250D01*
X498750Y170000D02*
X501250D01*
X500000Y168750D02*
Y171250D01*
X478750Y170000D02*
X481250D01*
X480000Y168750D02*
Y171250D01*
X488750Y170000D02*
X491250D01*
X490000Y168750D02*
Y171250D01*
X236250Y137500D02*
X238750D01*
X237500Y136250D02*
Y138750D01*
X236250Y127500D02*
X238750D01*
X237500Y126250D02*
Y128750D01*
X96250Y137500D02*
X98750D01*
X97500Y136250D02*
Y138750D01*
X96250Y127500D02*
X98750D01*
X97500Y126250D02*
Y128750D01*
X166250Y137500D02*
X168750D01*
X167500Y136250D02*
Y138750D01*
X166250Y127500D02*
X168750D01*
X167500Y126250D02*
Y128750D01*
X768750Y207000D02*
X771250D01*
X770000Y205750D02*
Y208250D01*
X718750Y55000D02*
X721250D01*
X720000Y53750D02*
Y56250D01*
X736250Y55000D02*
X738750D01*
X737500Y53750D02*
Y56250D01*
X686250Y262500D02*
X688750D01*
X687500Y261250D02*
Y263750D01*
X698750Y262500D02*
X701250D01*
X700000Y261250D02*
Y263750D01*
X723750Y212500D02*
X726250D01*
X725000Y211250D02*
Y213750D01*
X743750Y212500D02*
X746250D01*
X745000Y211250D02*
Y213750D01*
X733750Y212500D02*
X736250D01*
X735000Y211250D02*
Y213750D01*
X576250Y215000D02*
X578750D01*
X577500Y213750D02*
Y216250D01*
X813750Y307500D02*
X816250D01*
X815000Y306250D02*
Y308750D01*
X801250Y202500D02*
X803750D01*
X802500Y201250D02*
Y203750D01*
X801250Y220000D02*
X803750D01*
X802500Y218750D02*
Y221250D01*
X801250Y237500D02*
X803750D01*
X802500Y236250D02*
Y238750D01*
X801250Y255000D02*
X803750D01*
X802500Y253750D02*
Y256250D01*
X668750Y262500D02*
X671250D01*
X670000Y261250D02*
Y263750D01*
X806250Y317500D02*
X808750D01*
X807500Y316250D02*
Y318750D01*
X806250Y355000D02*
X808750D01*
X807500Y353750D02*
Y356250D01*
X801250Y277500D02*
X803750D01*
X802500Y276250D02*
Y278750D01*
X633500Y262250D02*
X636000D01*
X634750Y261000D02*
Y263500D01*
X741250Y312500D02*
X743750D01*
X742500Y311250D02*
Y313750D01*
X741250Y352500D02*
X743750D01*
X742500Y351250D02*
Y353750D01*
X741250Y297500D02*
X743750D01*
X742500Y296250D02*
Y298750D01*
X741250Y337500D02*
X743750D01*
X742500Y336250D02*
Y338750D01*
X806250Y335000D02*
X808750D01*
X807500Y333750D02*
Y336250D01*
X806250Y345000D02*
X808750D01*
X807500Y343750D02*
Y346250D01*
X796250Y295000D02*
X798750D01*
X797500Y293750D02*
Y296250D01*
X481250Y285000D02*
X483750D01*
X482500Y283750D02*
Y286250D01*
X491250Y250000D02*
X493750D01*
X492500Y248750D02*
Y251250D01*
X508750Y250000D02*
X511250D01*
X510000Y248750D02*
Y251250D01*
X561282Y260468D02*
X563782D01*
X562532Y259218D02*
Y261718D01*
X546250Y262500D02*
X548750D01*
X547500Y261250D02*
Y263750D01*
X546250Y330000D02*
X548750D01*
X547500Y328750D02*
Y331250D01*
X641718Y340032D02*
X644218D01*
X642968Y338782D02*
Y341282D01*
X625718Y340032D02*
X628218D01*
X626968Y338782D02*
Y341282D01*
X609718Y340032D02*
X612218D01*
X610968Y338782D02*
Y341282D01*
X577718Y340032D02*
X580218D01*
X578968Y338782D02*
Y341282D01*
X561718Y340032D02*
X564218D01*
X562968Y338782D02*
Y341282D01*
X625625Y319875D02*
X628125D01*
X626875Y318625D02*
Y321125D01*
X625625Y280375D02*
X628125D01*
X626875Y279125D02*
Y281625D01*
X561375Y280625D02*
X563875D01*
X562625Y279375D02*
Y281875D01*
X561375Y320125D02*
X563875D01*
X562625Y318875D02*
Y321375D01*
X561375Y300375D02*
X563875D01*
X562625Y299125D02*
Y301625D01*
X593375Y268125D02*
X595875D01*
X594625Y266875D02*
Y269375D01*
X625625Y300125D02*
X628125D01*
X626875Y298875D02*
Y301375D01*
X398750Y350000D02*
X401250D01*
X400000Y348750D02*
Y351250D01*
X413750Y232500D02*
X416250D01*
X415000Y231250D02*
Y233750D01*
X398750Y232500D02*
X401250D01*
X400000Y231250D02*
Y233750D01*
X456250Y212500D02*
X458750D01*
X457500Y211250D02*
Y213750D01*
X463750Y232500D02*
X466250D01*
X465000Y231250D02*
Y233750D01*
X461250Y322500D02*
X463750D01*
X462500Y321250D02*
Y323750D01*
X306250Y210000D02*
X308750D01*
X307500Y208750D02*
Y211250D01*
X336250Y210000D02*
X338750D01*
X337500Y208750D02*
Y211250D01*
X353750Y197500D02*
X356250D01*
X355000Y196250D02*
Y198750D01*
X158750Y295000D02*
X161250D01*
X160000Y293750D02*
Y296250D01*
X158750Y280000D02*
X161250D01*
X160000Y278750D02*
Y281250D01*
X138750Y192500D02*
X141250D01*
X140000Y191250D02*
Y193750D01*
X138750Y290000D02*
X141250D01*
X140000Y288750D02*
Y291250D01*
X283750Y310000D02*
X286250D01*
X285000Y308750D02*
Y311250D01*
X373750Y295000D02*
X376250D01*
X375000Y293750D02*
Y296250D01*
X363750Y325000D02*
X366250D01*
X365000Y323750D02*
Y326250D01*
X363750Y340000D02*
X366250D01*
X365000Y338750D02*
Y341250D01*
X298750Y325000D02*
X301250D01*
X300000Y323750D02*
Y326250D01*
X283750Y340000D02*
X286250D01*
X285000Y338750D02*
Y341250D01*
X283750Y325000D02*
X286250D01*
X285000Y323750D02*
Y326250D01*
X298750Y340000D02*
X301250D01*
X300000Y338750D02*
Y341250D01*
X343750Y280000D02*
X346250D01*
X345000Y278750D02*
Y281250D01*
X358750Y280000D02*
X361250D01*
X360000Y278750D02*
Y281250D01*
X373750Y280000D02*
X376250D01*
X375000Y278750D02*
Y281250D01*
X298750Y280000D02*
X301250D01*
X300000Y278750D02*
Y281250D01*
X283750Y280000D02*
X286250D01*
X285000Y278750D02*
Y281250D01*
X313750Y280000D02*
X316250D01*
X315000Y278750D02*
Y281250D01*
X283750Y295000D02*
X286250D01*
X285000Y293750D02*
Y296250D01*
X173750Y295000D02*
X176250D01*
X175000Y293750D02*
Y296250D01*
X203750Y280000D02*
X206250D01*
X205000Y278750D02*
Y281250D01*
X173750Y280000D02*
X176250D01*
X175000Y278750D02*
Y281250D01*
X188750Y280000D02*
X191250D01*
X190000Y278750D02*
Y281250D01*
X263750Y280000D02*
X266250D01*
X265000Y278750D02*
Y281250D01*
X248750Y280000D02*
X251250D01*
X250000Y278750D02*
Y281250D01*
X233750Y280000D02*
X236250D01*
X235000Y278750D02*
Y281250D01*
X188750Y340000D02*
X191250D01*
X190000Y338750D02*
Y341250D01*
X173750Y325000D02*
X176250D01*
X175000Y323750D02*
Y326250D01*
X173750Y340000D02*
X176250D01*
X175000Y338750D02*
Y341250D01*
X188750Y325000D02*
X191250D01*
X190000Y323750D02*
Y326250D01*
X253750Y340000D02*
X256250D01*
X255000Y338750D02*
Y341250D01*
X253750Y325000D02*
X256250D01*
X255000Y323750D02*
Y326250D01*
X263750Y295000D02*
X266250D01*
X265000Y293750D02*
Y296250D01*
X173750Y310000D02*
X176250D01*
X175000Y308750D02*
Y311250D01*
M02*
